<svg width="20" height="20" viewBox="0 0 20 20" fill="none" xmlns="http://www.w3.org/2000/svg">
<path d="M19.4141 9.41406H18.7694C18.6303 7.28699 17.7359 5.30637 16.2148 3.7852C14.6936 2.26402 12.713 1.36969 10.5859 1.23062V0.585938C10.5859 0.262344 10.3236 0 10 0C9.67641 0 9.41406 0.262344 9.41406 0.585938V1.23062C7.28699 1.36969 5.30633 2.26406 3.7852 3.7852C2.26406 5.30637 1.36973 7.28699 1.23062 9.41406H0.585938C0.262344 9.41406 0 9.67641 0 10C0 10.3236 0.262344 10.5859 0.585938 10.5859H1.23062C1.36973 12.713 2.26406 14.6936 3.7852 16.2148C5.30637 17.736 7.28699 18.6303 9.41406 18.7694V19.4141C9.41406 19.7377 9.67641 20 10 20C10.3236 20 10.5859 19.7377 10.5859 19.4141V18.7694C12.713 18.6303 14.6936 17.7359 16.2148 16.2148C17.736 14.6936 18.6303 12.713 18.7694 10.5859H19.4141C19.7377 10.5859 20 10.3236 20 10C20 9.67641 19.7377 9.41406 19.4141 9.41406V9.41406ZM10.5859 17.5949V16.9922C10.5859 16.6686 10.3236 16.4062 10 16.4062C9.67641 16.4062 9.41406 16.6686 9.41406 16.9922V17.5949C5.68004 17.3095 2.69051 14.32 2.40512 10.5859H3.00781C3.33141 10.5859 3.59375 10.3236 3.59375 10C3.59375 9.67641 3.33141 9.41406 3.00781 9.41406H2.40512C2.69051 5.68004 5.68004 2.69051 9.41406 2.40512V3.00781C9.41406 3.33141 9.67641 3.59375 10 3.59375C10.3236 3.59375 10.5859 3.33141 10.5859 3.00781V2.40512C14.32 2.69051 17.3095 5.68004 17.5949 9.41406H16.9922C16.6686 9.41406 16.4062 9.67641 16.4062 10C16.4062 10.3236 16.6686 10.5859 16.9922 10.5859H17.5949C17.3095 14.32 14.32 17.3095 10.5859 17.5949Z" fill="#FF6646"/>
<circle cx="10" cy="10" r="4" fill="#FF6646"/>
</svg>
