<svg width="50" height="50" viewBox="0 0 50 50" fill="none" xmlns="http://www.w3.org/2000/svg">
<g clip-path="url(#clip0_1_36)">
<path d="M47.8381 45.702V5.33424L42.1885 1.57129L21.9575 11.1686V17.9438L10.6699 21.7067V26.6249L2.26398 28.9703V45.5276H0V48.2735H2.26398V48.2865L4.80707 48.2735L4.83679 30.7936L18.9815 27.355L18.8988 48.2335L20.9198 48.2477V48.2735H25.6829V45.5276H24.2292V28.9755L20.7828 23.8014L13.3047 25.8896V23.7769L27.9831 18.7889V48.2361H38.4268V45.5108H36.4497V18.3198L30.7136 14.7429L24.6905 16.8144L24.7836 13.0501L39.4606 6.08632V48.4273H49.9987V45.702H47.8381Z" fill="#FF6646"/>
<path d="M30.1681 27.4545H19.8303V24.3829L30.1681 22.5441V27.4545Z" fill="#FF6646"/>
<path d="M30.1681 25.617L19.8303 27.4545V24.3816L30.1681 22.5441V25.617Z" fill="#FF6646"/>
<path d="M30.1681 25.617L19.8303 27.4545V24.3842L30.1681 22.5441V25.617Z" fill="#FF6646"/>
<path d="M30.1681 25.617L19.8303 27.4545V24.3829L30.1681 22.5441V25.617Z" fill="#FF6646"/>
</g>
<defs>
<clipPath id="clip0_1_36">
<rect width="49.9987" height="50" fill="white"/>
</clipPath>
</defs>
</svg>
